HIERARCHY
ROOT Hips
{
  OFFSET -1.0232 89.769 1.47343
  CHANNELS 6 Xposition Yposition Zposition Zrotation Xrotation Yrotation
  JOINT Spine
  {
    OFFSET 0 10.1816 0.1315
    CHANNELS 3 Zrotation Xrotation Yrotation
    JOINT Spine1
    {
      OFFSET 0 10.0835 -1.0008
      CHANNELS 3 Zrotation Xrotation Yrotation
      JOINT Spine2
      {
        OFFSET 0 9.1 -1.3734
        CHANNELS 3 Zrotation Xrotation Yrotation
        JOINT Neck
        {
          OFFSET 0 16.6717 -2.5162
          CHANNELS 3 Zrotation Xrotation Yrotation
          JOINT Head
          {
            OFFSET 0 9.6179 1.685
            CHANNELS 3 Zrotation Xrotation Yrotation
            End Site
            {
              OFFSET 0 17.8152 2.585
            }
          }
        }
        JOINT LeftShoulder
        {
          OFFSET 4.5704 10.946 -2.628
          CHANNELS 3 Zrotation Xrotation Yrotation
          JOINT LeftArm
          {
            OFFSET 10.5924 -0.5246 -2.2321
            CHANNELS 3 Zrotation Xrotation Yrotation
            JOINT LeftForeArm
            {
              OFFSET 27.8415 -0.0001 0
              CHANNELS 3 Zrotation Xrotation Yrotation
              JOINT LeftHand
              {
                OFFSET 28.3288 0 0
                CHANNELS 3 Zrotation Xrotation Yrotation
                End Site
                {
                  OFFSET 0 0 0
                }
              }
            }
          }
        }
        JOINT RightShoulder
        {
          OFFSET -4.57 10.9462 -2.628
          CHANNELS 3 Zrotation Xrotation Yrotation
          JOINT RightArm
          {
            OFFSET -10.5928 -0.5248 -2.2321
            CHANNELS 3 Zrotation Xrotation Yrotation
            JOINT RightForeArm
            {
              OFFSET -27.8415 0 0
              CHANNELS 3 Zrotation Xrotation Yrotation
              JOINT RightHand
              {
                OFFSET -28.3288 0 0.0001
                CHANNELS 3 Zrotation Xrotation Yrotation
                End Site
                {
                  OFFSET 0 0 0
                }
              }
            }
          }
        }
      }
    }
  }
  JOINT LeftUpLeg
  {
    OFFSET 8.2078 -6.7517 -1.5996
    CHANNELS 3 Zrotation Xrotation Yrotation
    JOINT LeftLeg
    {
      OFFSET 0 -44.3705 0.2846
      CHANNELS 3 Zrotation Xrotation Yrotation
      JOINT LeftFoot
      {
        OFFSET 0 -44.4279 -2.9822
        CHANNELS 3 Zrotation Xrotation Yrotation
        JOINT LeftToeBase
        {
          OFFSET 0 -8.7287 10.7106
          CHANNELS 3 Zrotation Xrotation Yrotation
          End Site
          {
            OFFSET 0 -0.0007 9.2781
          }
        }
      }
    }
  }
  JOINT RightUpLeg
  {
    OFFSET -8.2078 -6.7517 -1.5996
    CHANNELS 3 Zrotation Xrotation Yrotation
    JOINT RightLeg
    {
      OFFSET 0 -44.3705 0.2862
      CHANNELS 3 Zrotation Xrotation Yrotation
      JOINT RightFoot
      {
        OFFSET 0 -44.4277 -2.9838
        CHANNELS 3 Zrotation Xrotation Yrotation
        JOINT RightToeBase
        {
          OFFSET 0 -8.7287 10.7106
          CHANNELS 3 Zrotation Xrotation Yrotation
          End Site
          {
            OFFSET 0 -0.0007 9.2781
          }
        }
      }
    }
  }
}
MOTION
Frames:	6
Frame Time:	0.0333333
-6.55175 89.4154 -14.4551 -2.32816 -1.21616 -32.1608 -0.88156 17.6436 5.18995 -0.448072 0.0884143 0.673416 -0.468254 0.0937107 0.65249 -4.01391 5.66081 2.5796 -3.54786 7.69483 6.08385 -8.47948 0.472317 6.11276 -71.187 1.18382 -4.21649 -3.1657 -2.82993 -138.394 18.2565 7.98823 -10.6142 -3.87812 1.35007 12.9903 65.2784 0.861783 12.2814 -0.506627 0.396525 142.168 -11.4123 7.02245 8.93866 28.969 -40.3754 21.2983 14.4082 56.6688 -21.3857 -19.8515 9.2896 -5.74626 3.38048 -12.8947 0.494799 -20.8693 0.400418 -18.2938 -0.713741 42.5632 3.66491 22.6874 -32.3102 7.11599 -0.000407652 -3.9595 0.0151534 
-6.46859 90.4854 -13.5408 -2.34871 -1.45659 -33.166 -1.04699 17.1248 5.60281 -0.479025 0.206761 0.726226 -0.499235 0.211537 0.705137 -4.37658 6.42037 2.77232 -3.65509 8.40729 6.50756 -8.27114 0.336431 6.42193 -70.7157 0.535894 -3.58389 -3.20064 -2.79035 -139.107 17.8519 8.22268 -10.493 -3.88127 1.45987 13.4457 65.849 0.481072 11.7536 -0.509348 0.394704 142.408 -11.588 6.75998 8.86503 30.4666 -40.1632 22.8828 13.2127 57.7368 -20.4417 -19.4682 13.1938 -7.07594 4.53969 -10.462 0.513431 -20.492 2.26997 -17.888 -1.3961 38.355 2.86136 23.5505 -29.691 7.51299 5.63631e-007 -5.21003 0.0152473 
-6.15541 91.9656 -12.2458 -1.89652 -1.37713 -34.2369 -1.50092 15.9518 5.932 -0.385044 0.325705 0.758428 -0.403595 0.328582 0.741961 -4.82403 7.25314 2.98779 -3.77342 9.15754 6.87754 -8.08567 0.330205 6.36942 -70.0594 -0.804318 -4.04558 -3.25594 -2.72559 -140.256 17.9974 8.44089 -9.96354 -3.88958 1.49287 13.9822 66.3476 -0.398469 12.094 -0.515056 0.387208 143.248 -12.4787 5.6976 8.90516 30.8389 -39.3987 23.8563 11.3703 57.3262 -18.784 -18.6405 15.297 -8.63757 5.11098 -6.93414 0.395001 -20.6425 2.87557 -17.2915 -2.34973 34.9332 2.60399 23.9841 -23.373 6.72369 2.60572e-005 -7.39395 0.0120187 
-5.56261 93.4791 -10.679 -1.068 -0.987982 -35.2314 -2.04497 14.3844 6.08054 -0.215309 0.444146 0.764566 -0.23076 0.444603 0.755336 -5.22215 7.92945 3.16424 -3.96962 9.56944 7.17271 -7.95263 0.425821 6.02094 -69.5232 -2.63422 -5.4166 -3.32437 -2.64166 -141.718 18.9286 8.32385 -9.29488 -3.85367 1.49424 14.4835 66.5879 -1.67959 13.4703 -0.523029 0.376394 144.44 -13.6871 4.25851 8.70062 29.9035 -38.5328 23.7711 9.87298 55.4281 -17.338 -17.8194 15.131 -9.88209 1.8457 -4.43926 0.11375 -21.2298 2.59143 -16.781 -3.22272 32.0491 3.10837 24.2909 -15.4539 4.96771 -0.00248159 -10.3056 -0.000549906 
-4.77583 94.7019 -8.97003 -0.182901 -0.387617 -36.3055 -2.46581 12.7561 6.11345 -0.031016 0.570498 0.761297 -0.0428334 0.568707 0.757941 -5.49833 8.31654 3.29371 -4.2324 9.48442 7.50797 -7.83113 0.561079 5.52375 -69.1285 -4.6006 -7.47008 -3.39035 -2.55639 -143.173 20.4557 7.77504 -8.68452 -3.73482 1.5526 14.9896 66.5761 -3.24021 15.8614 -0.530887 0.36522 145.655 -14.7737 2.82625 8.02478 28.3033 -37.5018 23.0135 9.05068 52.2338 -16.4119 -17.0128 13.2875 -10.2217 2.75342e-006 -3.13197 -6.81229e-005 -21.8974 1.4709 -16.5905 -3.97233 30.8658 3.39037 21.886 -10.9034 3.32954 3.09475 -9.80157 0.346209 
-3.90881 95.3995 -7.23256 0.45187 0.258191 -37.6514 -2.61989 11.3918 6.15023 0.116455 0.685579 0.763969 0.107158 0.68217 0.768897 -5.61956 8.36089 3.39651 -4.54281 9.03618 8.03772 -7.6695 0.664581 5.06383 -68.7004 -6.25061 -9.84095 -3.43439 -2.49686 -144.172 22.0923 6.89073 -8.26845 -3.53475 1.74077 15.5336 66.4217 -4.79205 18.9745 -0.537636 0.357323 146.504 -15.3686 1.67663 6.95668 26.7769 -36.0249 22.2017 8.79669 48.1081 -15.8811 -16.1509 10.876 -9.48259 -8.23869e-005 -2.81722 -0.000992341 -22.6933 -0.274598 -16.6086 -4.68886 31.3809 4.26639 19.3537 -8.94688 2.1571 4.47332 -7.41243 0.406203 
